<svg width="30" height="28" viewBox="0 0 30 28" fill="none" xmlns="http://www.w3.org/2000/svg">
<g clip-path="url(#clip0_1_142)">
<path d="M13.1344 19.4203V0.701939L22.5565 4.44561L13.1344 9.12521" stroke="black" stroke-width="1.5" stroke-linejoin="round"/>
<path d="M13.1344 20.3562C14.1752 20.3562 15.0188 20.1467 15.0188 19.8883C15.0188 19.6298 14.1752 19.4203 13.1344 19.4203C12.0937 19.4203 11.25 19.6298 11.25 19.8883C11.25 20.1467 12.0937 20.3562 13.1344 20.3562Z" stroke="black" stroke-width="1.5" stroke-linejoin="round"/>
<path d="M21.1432 22.2281C21.9238 22.2281 22.5565 21.5995 22.5565 20.8242C22.5565 20.0489 21.9238 19.4203 21.1432 19.4203C20.3627 19.4203 19.7299 20.0489 19.7299 20.8242C19.7299 21.5995 20.3627 22.2281 21.1432 22.2281Z" fill="black"/>
<path d="M2.32727 21.0675C2.32727 18.475 5.63443 16.2382 10.3738 15.2648" stroke="black" stroke-width="1.8" stroke-linejoin="round"/>
<path d="M15.7444 14.7407C23.1501 14.7407 29.152 17.5766 29.152 21.0675C29.152 24.5585 23.1125 27.5909 15.7444 26.7673C10.1099 26.1402 8.42338 21.2828 0.348633 24.8954" stroke="black" stroke-width="1.8" stroke-linejoin="round"/>
</g>
<defs>
<clipPath id="clip0_1_142">
<rect width="30" height="27.75" fill="white"/>
</clipPath>
</defs>
</svg>
