<svg width="30" height="17" viewBox="0 0 30 17" fill="none" xmlns="http://www.w3.org/2000/svg">
<g clip-path="url(#clip0_1_44)">
<path d="M2.44898 0H27.551C28.9022 0 30 1.10408 30 2.46295V13.7533C30 15.1121 28.9022 16.2162 27.551 16.2162H2.44898C1.09782 16.2162 0 15.1121 0 13.7533V2.46295C0 1.10408 1.09782 0 2.44898 0Z" fill="white"/>
<path d="M28.7069 1.30048C28.3955 0.992613 27.9891 0.817446 27.551 0.817446H20.5313L24.569 7.59057L24.9384 7.63303L25.1548 7.9409V8.23285L25.4134 8.28062L25.6457 8.60441V8.88574L25.9096 8.93352C25.9096 8.93352 26.1735 9.20954 26.1735 9.22546V9.85712C26.1735 9.85712 26.7435 10.3826 27.2502 10.5843C27.6038 10.7223 27.646 11.2956 27.8466 11.6088C28.1263 12.0387 28.4958 12.2245 28.4166 12.474C28.2319 13.1375 27.5563 14.2522 26.9282 14.3159C26.9282 14.3159 25.3607 14.3159 24.437 14.3159V15.3882H27.551C28.4483 15.3882 29.1819 14.6503 29.1819 13.748V2.46295C29.1819 2.02238 29.013 1.60835 28.7069 1.30048Z" fill="#BF0D3E"/>
<path d="M18.1404 0.822754H2.44898C2.01618 0.822754 1.6045 0.992613 1.2931 1.30579C0.986978 1.61366 0.812805 2.02769 0.812805 2.46826V13.7533C0.812805 14.1938 0.9817 14.6026 1.2931 14.9157C1.59922 15.2289 2.01091 15.3988 2.44898 15.3988H12.6407C12.3821 14.9688 12.0971 14.4805 12.0074 14.3318H10.7935C10.7935 11.3009 11.8227 9.61295 13.0366 9.28916C13.2055 9.25731 13.1263 8.42394 12.9152 8.17446C12.9152 8.17446 12.3293 8.19038 12.2079 8.15853C12.0549 8.11076 12.1604 7.95683 12.1604 7.95683L12.7252 6.72004L12.6513 6.38032H10.5454C10.5137 6.38032 12.2818 5.15946 12.2818 5.15946C12.3716 1.94276 15.6492 1.69328 17.6337 3.0203C18.8001 3.8059 18.8951 5.35586 18.8054 6.43871C18.7896 6.50241 18.4993 6.45464 18.4993 6.45464C18.4993 6.45464 18.2987 7.62773 18.8212 7.62773H21.1277C22.0672 7.59588 22.975 8.22754 22.975 8.22754L23.2072 7.42071L18.1404 0.822754ZM4.19071 13.0685C3.57319 13.0685 3.0665 12.5642 3.0665 11.9432C3.0665 11.3222 3.56791 10.8126 4.18543 10.8126C4.80295 10.8126 5.30964 11.3168 5.30964 11.9379C5.30964 12.5589 4.80823 13.0632 4.19071 13.0632" fill="#041E42"/>
</g>
<defs>
<clipPath id="clip0_1_44">
<rect width="30" height="16.2162" fill="white"/>
</clipPath>
</defs>
</svg>
