<svg width="13" height="30" viewBox="0 0 13 30" fill="none" xmlns="http://www.w3.org/2000/svg">
<g clip-path="url(#clip0_1_51)">
<path d="M9.83871 0H3.01843C1.35369 0 0 1.39383 0 3.10795V26.8921C0 28.6062 1.35369 30 3.01843 30H9.83295C11.4977 30 12.8571 28.6062 12.8571 26.8921V3.10795C12.8571 1.39383 11.5035 0 9.83871 0Z" fill="white"/>
<path d="M8.14517 5.49822V5.59905C8.3583 5.72361 8.46775 5.82444 8.67512 5.96678C9.23388 6.32859 9.91936 6.96916 9.83295 9.17556C9.98848 9.65599 10.0576 10.605 10.2016 10.9075C10.4896 11.5006 10.6855 11.8861 10.7719 12.4437C10.7719 12.4437 10.8583 13.3155 10.962 13.3749C11.538 13.5113 11.371 13.5646 11.4574 13.6655C11.5438 13.7841 11.8779 13.7782 11.8779 14.0985C11.9931 14.2586 12.0795 14.4247 12.1429 14.5967V3.10795C12.1429 1.79715 11.106 0.735468 9.83871 0.735468H7.63249C7.98388 0.865954 8.18549 1.02017 8.3007 1.26334C8.58295 1.28707 8.92282 1.94543 8.39862 2.91815C8.6348 3.07829 8.45047 3.31554 8.28341 3.59431C8.23157 3.68327 8.17973 3.84342 8.0242 3.83155C7.82259 4.26453 7.58065 4.68565 7.40208 4.70937C7.34447 4.78054 7.30415 4.96441 7.39056 5.05338C7.66129 5.17794 7.98388 5.34994 8.14517 5.50415" fill="#D91A32"/>
<path d="M12.1428 16.1507C11.8433 16.9336 11.1002 17.4852 10.2304 17.4852C9.08985 17.4852 8.17396 16.5362 8.17396 15.3677C8.17396 14.3713 8.84216 13.535 9.74654 13.3096C9.51036 12.6987 9.00921 11.7082 8.85944 11.382C8.72119 11.0617 8.38133 9.04508 8.30644 8.64769C8.28916 8.55872 7.41935 9.16963 7.41935 9.20522C7.3675 9.2586 6.76843 10.8719 6.73962 10.9609C6.7281 11.0142 6.7281 11.2337 6.7281 11.2337C6.7281 11.2337 7.02188 11.2693 7.19469 11.8031C7.36174 12.3369 7.88018 14.2705 7.88018 14.2705C7.88018 14.2705 7.74193 14.4187 7.73617 14.4069C8.38709 16.6429 8.15667 17.6097 8.45045 18.2622C8.81912 19.1874 8.91704 19.0688 9.2281 19.8458C9.45276 20.4093 9.70621 22.6394 9.78686 22.7402C10.1382 23.1969 10.3283 23.5528 10.3283 23.8138C10.3283 24.0747 10.0288 24.8399 10.1382 25.2906C10.2016 25.5516 10.2362 26.1447 10.3571 26.2574C10.3571 26.2574 10.4666 26.4769 10.4147 26.5777C10.3975 26.6133 10.3687 26.6607 10.3802 26.7023C10.576 27.4021 11.1981 28.6062 10.1843 29.2289H10.2074C11.3076 29.051 12.1428 28.0783 12.1428 26.8802V16.1447V16.1507Z" fill="#D91A32"/>
<path d="M9.54493 26.4354C9.17627 26.0973 9.42396 25.949 9.40668 25.8185C9.16475 24.7805 8.3583 24.1518 8.77304 23.8078C8.66936 23.4638 8.46198 23.0368 8.46774 23.0368C7.21774 22.3013 6.15783 21.0973 5.9735 20.9253C5.75461 20.6821 5.38019 20.433 5.31106 20.2372C5.01152 19.9526 3.53687 17.8055 3.19701 17.0107L2.59793 16.9217C2.32719 15.777 1.41705 14.8221 1.39401 13.6714C1.38825 13.2384 1.5841 12.3072 1.65899 12.1234C1.73387 11.9336 2.07949 11.6251 2.07949 11.6251V11.3167C0.777651 11.3523 1.15207 11.2159 0.927421 10.694C0.771891 10.3321 0.881338 10.255 0.938941 10C1.11175 9.2586 1.69355 8.11981 1.93549 7.6038C2.01037 7.34282 2.25807 6.71412 2.25807 6.71412C3.23157 4.67972 3.59447 4.828 4.74654 4.70937L4.80415 4.62634C5.96198 4.57295 5.77189 4.48399 5.93318 3.33927C5.76613 3.41637 5.71429 2.97746 5.71429 2.97746C5.62212 2.32503 5.8871 2.44959 6.01382 2.43772C6.04263 1.36418 6.14631 1.0261 6.90092 0.729538H3.00691C1.74539 0.729538 0.708527 1.79715 0.708527 3.10795V26.8921C0.708527 28.2028 1.73963 29.2705 3.01267 29.2705H9.83295C9.04954 28.8375 9.51037 28.0071 9.53917 26.4413" fill="#00428B"/>
<path d="M4.30875 27.7699V23.4638H5.12096C5.58755 23.4638 5.88133 23.7248 5.88133 24.3238V24.9644C5.88133 25.3559 5.76612 25.5575 5.60483 25.6524C5.76612 25.7651 5.88133 25.9609 5.88133 26.2871V26.9158C5.88133 27.5089 5.57603 27.7699 5.12096 27.7699H4.30875ZM4.86751 25.9015V27.2301H5.08064C5.27073 27.2301 5.32258 27.1293 5.32258 26.9217V26.1922C5.32258 25.9786 5.25921 25.9015 5.07488 25.9015H4.86751ZM4.86751 24.0095V25.433H5.07488C5.27073 25.433 5.32258 25.3618 5.32258 25.1246V24.3001C5.32258 24.0985 5.26497 24.0095 5.08064 24.0095H4.86751ZM7.18893 26.898H6.68202L6.6129 27.7699H6.04838L6.55529 23.4638H7.35599L7.83986 27.7699H7.2523L7.18317 26.898H7.18893ZM6.94124 23.9502H6.91244C6.87787 24.4662 6.80875 25.3796 6.78571 25.6702L6.72234 26.4116H7.15437L7.09101 25.6702C7.06797 25.3737 6.98732 24.4781 6.94124 23.9502ZM2.65552 27.7758H2.16589V23.4697H2.93778L3.5599 26.9988C3.50806 26.1566 3.43893 25.1364 3.43893 24.2645V23.4697H3.92857V27.7758H3.22004L2.59792 24.3238C2.63824 25.1186 2.65552 25.7533 2.65552 26.4176V27.7758Z" fill="white"/>
</g>
<defs>
<clipPath id="clip0_1_51">
<rect width="12.8571" height="30" fill="white"/>
</clipPath>
</defs>
</svg>
