<svg width="22" height="30" viewBox="0 0 22 30" fill="none" xmlns="http://www.w3.org/2000/svg">
<g clip-path="url(#clip0_1_13)">
<path d="M21.2199 3.41165C20.2788 4.08271 18.4703 5.00188 16.1459 4.43233C12.1208 3.44549 10.9699 0 10.9699 0C10.9699 0 9.81909 3.45113 5.79394 4.43233C3.46956 5.00188 1.66675 4.08271 0.719991 3.41165H0V22.0038C0 22.4718 0.113384 23.4023 0.884398 24.3271C1.83116 25.4718 3.43555 26.2162 5.65788 26.532C7.42668 26.7857 8.73627 27.3383 9.65468 28.2237C10.335 28.8722 10.9756 29.9944 10.9756 29.9944C10.9756 29.9944 11.6446 28.8496 12.2965 28.2237C13.2206 27.3383 14.5245 26.7857 16.2933 26.532C18.5157 26.2105 20.1201 25.4718 21.0668 24.3271C21.8322 23.4023 21.9512 22.4718 21.9512 22.0038V3.41165H21.2256H21.2199Z" fill="white"/>
<path d="M21.2879 4.1391C21.2879 4.1391 19.0882 5.84211 15.9872 5.06955C12.3759 4.17293 10.9699 1.47744 10.9699 1.47744C10.9699 1.47744 9.56396 4.16729 5.95267 5.06955C2.8516 5.84211 0.651947 4.1391 0.651947 4.1391V22.0094C0.651947 22.6184 0.907062 25.1955 5.74291 25.8891C7.65343 26.1654 9.07641 26.7744 10.1025 27.7556C10.471 28.1053 10.7545 28.4662 10.9643 28.7932C11.1797 28.4662 11.4575 28.1053 11.826 27.7556C12.8521 26.7744 14.2808 26.1654 16.1856 25.8891C21.0215 25.1955 21.2766 22.6128 21.2766 22.0094V4.1391H21.2879Z" fill="#003B75"/>
<path d="M10.9756 26.9718C10.9756 26.9718 12.3816 25.2519 16.0269 24.6936C20.2051 24.0507 20.0804 22.0996 20.0804 22.0038V12.6485H1.87085V22.0038C1.87085 22.0996 1.74613 24.0564 5.92434 24.6936C9.56965 25.2519 10.9756 26.9718 10.9756 26.9718Z" fill="white"/>
<path d="M6.72936 19.4831V15.0338L6.16811 14.718V13.562H8.72493V14.718L8.19202 15.0338V24.1128L6.82574 23.7068L4.84718 17.9098V21.7331L5.47646 22.2124V23.391L2.73256 22.6974V21.6936L3.36184 21.4511V15.0451L2.72122 14.7293V13.5733H4.79616L6.73503 19.4887L6.72936 19.4831Z" fill="#DA2128"/>
<path d="M11.4348 23.5545L11.9847 24.2086V25.3647L9.26917 24.3553V23.3741L9.8701 23.1316V15.0395L9.27483 14.7406V13.5733H13.9916V15.9192H12.9542L12.6423 14.9549H11.4405V17.6729H12.3419L12.699 17.1598H13.4247V19.5789H12.699L12.3589 19.0883H11.4461V23.5658L11.4348 23.5545Z" fill="#DA2128"/>
<path d="M14.4338 23.9605V22.8045L15.1085 22.2519V15.0282L14.5302 14.7293V13.562H17.2514V14.7293L16.7185 15.0282V21.8064L17.8864 21.4906L18.1132 19.7143H19.23V22.6804L14.4338 23.9549V23.9605Z" fill="#DA2128"/>
<path d="M2.34139 10.7312L1.51935 10.1165H2.52847L2.86295 9.16917L3.19744 10.1165H4.20656L3.38452 10.7312L3.68499 11.6955L2.86862 11.1259L2.05225 11.6955L2.35272 10.7312H2.34139Z" fill="white"/>
<path d="M5.91866 10.7312L5.09662 10.1165H6.10574L6.44022 9.16917L6.77471 10.1165H7.78383L6.96179 10.7312L7.26226 11.6955L6.44589 11.1259L5.62953 11.6955L5.92999 10.7312H5.91866Z" fill="white"/>
<path d="M2.34139 7.52256L1.51935 6.90789H2.52847L2.86295 5.96053L3.19744 6.90789H4.20656L3.38452 7.52256L3.68499 8.48684L2.86862 7.91729L2.05225 8.48684L2.35272 7.52256H2.34139Z" fill="white"/>
<path d="M5.91866 7.52256L5.09662 6.90789H6.10574L6.44022 5.96053L6.77471 6.90789H7.78383L6.96179 7.52256L7.26226 8.48684L6.44589 7.91729L5.62953 8.48684L5.92999 7.52256H5.91866Z" fill="white"/>
<path d="M19.9103 11.6955L19.0939 11.1259L18.2776 11.6955L18.578 10.7312L17.756 10.1165H18.7651L19.0996 9.16917L19.4341 10.1165H20.4432L19.6212 10.7312L19.9216 11.6955H19.9103Z" fill="white"/>
<path d="M16.333 11.6955L15.5166 11.1259L14.7003 11.6955L15.0007 10.7312L14.1787 10.1165H15.1878L15.5223 9.16917L15.8568 10.1165H16.8603L16.0382 10.7312L16.3387 11.6955H16.333Z" fill="white"/>
<path d="M19.9103 8.48684L19.0939 7.91729L18.2776 8.48684L18.578 7.52256L17.756 6.90789H18.7651L19.0996 5.96053L19.4341 6.90789H20.4432L19.6212 7.52256L19.9216 8.48684H19.9103Z" fill="white"/>
<path d="M16.333 8.48684L15.5166 7.91729L14.7003 8.48684L15.0007 7.52256L14.1787 6.90789H15.1878L15.5223 5.96053L15.8568 6.90789H16.8603L16.0382 7.52256L16.3387 8.48684H16.333Z" fill="white"/>
<path d="M13.2433 4.95113C13.2433 4.95113 12.8181 5.17105 12.2228 5.75188C12.3589 5.82519 12.5063 5.93233 12.597 6.00564C12.5063 6.08459 12.4156 6.16917 12.3306 6.24812C11.945 5.93233 11.5425 5.7688 11.2251 5.69549C11.3271 5.62218 11.4405 5.54887 11.5482 5.47557C11.7183 5.52068 11.877 5.58271 11.877 5.58271C12.5517 5.07519 13.1299 4.85526 13.1299 4.85526C13.1299 4.85526 13.0619 4.82143 12.8805 4.82707C10.2386 4.8609 7.80085 6.82331 8.26005 10.1842C8.31108 10.5395 8.44714 11.188 8.62288 11.4699C8.67958 10.9117 8.89501 9.67669 9.51862 8.35151C9.30319 8.27256 9.12178 8.24436 9.12178 8.24436C9.18414 8.10902 9.27484 7.93985 9.27484 7.93985C9.73972 8.02444 10.1479 8.22181 10.5051 8.49812C10.42 8.63346 10.3633 8.72369 10.3236 8.79699C10.1989 8.70113 10.0742 8.61654 9.93247 8.5376C9.22949 9.76128 8.90068 10.9173 8.77028 11.5263C8.77595 11.5658 8.85532 11.5827 8.91768 11.5771C11.8147 11.2049 13.1696 9.73308 13.5835 8.14286C13.8556 7.09963 13.7649 6.00564 13.402 5.11466C13.3794 5.05263 13.3283 4.94549 13.2433 4.95677V4.95113ZM10.7545 8.12594C10.3803 7.81579 9.93814 7.62406 9.50728 7.53947C9.50728 7.53947 9.63767 7.32519 9.71704 7.21241C10.2443 7.31391 10.6751 7.56203 10.9699 7.81579C10.8906 7.92293 10.8225 8.03008 10.7545 8.12594ZM11.2307 7.46053C10.8792 7.16729 10.454 6.95301 9.97783 6.85714C10.0515 6.76128 10.1366 6.65978 10.2216 6.56955C10.5901 6.63722 11.0606 6.82895 11.4688 7.16166C11.3838 7.26316 11.3044 7.36466 11.2307 7.46053ZM11.758 6.82895C11.3895 6.53008 10.9813 6.33271 10.5447 6.24248C10.6525 6.14098 10.7602 6.05639 10.8566 5.97745C11.4008 6.10714 11.7693 6.34963 12.0187 6.55827C11.928 6.6485 11.843 6.73872 11.7636 6.82895H11.758Z" fill="white"/>
</g>
<defs>
<clipPath id="clip0_1_13">
<rect width="21.9512" height="30" fill="white"/>
</clipPath>
</defs>
</svg>
