<svg width="27" height="30" viewBox="0 0 27 30" fill="none" xmlns="http://www.w3.org/2000/svg">
<g clip-path="url(#clip0_1_60)">
<path d="M1.4137 18.1661C1.4137 15.4441 2.68731 14.4026 2.94839 11.8211C2.59179 14.0831 1.0953 15.9361 1.0953 18.1661C1.0953 19.0224 1.20992 19.8019 1.42644 20.5112C2.36254 23.6486 5.1581 25.393 7.86451 26.0767C3.69982 25.016 1.4137 21.508 1.4137 18.1661Z" fill="white"/>
<path d="M25.2429 18.1661C25.2429 16.7412 24.8544 15.6294 24.4278 14.5943C23.9183 13.361 23.3643 12.2492 23.3643 10.8754C23.3643 14.1917 24.9436 15.131 24.9436 18.1661C24.9436 21.508 22.6574 25.0224 18.4928 26.0767C22.2499 25.1246 25.2365 22.3578 25.2365 18.1661H25.2429Z" fill="white"/>
<path d="M23.7336 26.0639C23.1733 26.0639 22.7148 26.524 22.7148 27.0863C22.7148 27.6486 23.1733 28.1086 23.7336 28.1086C24.294 28.1086 24.7525 27.6486 24.7525 27.0863C24.7525 26.524 24.294 26.0639 23.7336 26.0639ZM23.7336 27.8914C23.2942 27.8914 22.9313 27.5335 22.9313 27.0863C22.9313 26.639 23.2879 26.2811 23.7336 26.2811C24.1794 26.2811 24.536 26.639 24.536 27.0863C24.536 27.5335 24.1794 27.8914 23.7336 27.8914Z" fill="white"/>
<path d="M24.1476 26.8498C24.1476 26.6581 23.9947 26.5048 23.8037 26.5048H23.3134V27.6741H23.5299V27.2013H23.6891L23.9119 27.6741H24.1539L23.9247 27.1821C24.0584 27.131 24.1539 27.0032 24.1539 26.8562L24.1476 26.8498ZM23.8037 26.9776H23.5299V26.722H23.8037C23.8737 26.722 23.9311 26.7796 23.9311 26.8498C23.9311 26.9201 23.8737 26.9776 23.8037 26.9776Z" fill="white"/>
<path d="M23.8674 4.94569C23.0141 4.69649 22.3964 4.04473 22.0206 3.02875L21.1546 0.658148L20.7534 2.15975C21.5685 5.84665 24.5933 6.10863 24.5933 6.10863L25.8224 5.53355L23.8674 4.95208V4.94569Z" fill="#CFD2D3"/>
<path d="M9.60298 18.377L8.02371 15.9425L6.26614 17.2652C6.26614 17.2652 6.88384 17.2843 6.88384 17.9297V22.5112L8.1256 21.5783V18.3387L9.5393 20.5112L10.8511 19.5272V13.8211L9.60935 14.754V18.377H9.60298Z" fill="#CFD2D3"/>
<path d="M14.6274 13.0735L13.2264 14.1278V12.0192L11.3351 13.4441C11.3351 13.4441 11.9528 13.4633 11.9528 14.1086V18.6901L13.2264 17.7316V15.6422L14.6274 14.5879V16.6773L15.8373 15.7636V10.0575L14.6274 10.9712V13.0799V13.0735Z" fill="#CFD2D3"/>
<path d="M18.1744 12.5431V8.29393L16.2831 9.71885C16.2831 9.71885 16.9008 9.73802 16.9008 10.3834V14.9585L20.4159 12.3067C20.3395 11.393 20.4159 10.8498 20.4159 10.8498L18.1744 12.5367V12.5431Z" fill="#CFD2D3"/>
<path d="M2.10782 10.8818C2.10782 14.1214 0.522179 14.7668 0.522179 18.1661C0.522179 19.2013 0.700483 20.1725 1.01252 21.0671C1.11441 20.8626 1.2545 20.6645 1.42644 20.5112C1.20993 19.8019 1.0953 19.0224 1.0953 18.1661C1.0953 15.9425 2.59179 14.0831 2.9484 11.8211C2.98024 11.5272 2.99934 11.2141 2.99934 10.8754C2.99934 8.29393 1.77031 6.10863 1.77031 6.10863L0.541283 5.53355L1.37549 7.43131C1.79578 8.38339 2.11419 9.55911 2.11419 10.8882L2.10782 10.8818Z" fill="url(#paint0_linear_1_60)"/>
<path d="M23.3707 10.8754C23.3707 12.2428 23.9247 13.361 24.4341 14.5942L25.0964 14.5751C24.6888 13.5463 24.2622 12.5623 24.2622 10.8882C24.2622 9.55911 24.5806 8.38339 25.0009 7.43131L25.8351 5.53355L24.6061 6.10863C24.6061 6.10863 23.377 8.29393 23.377 10.8754H23.3707Z" fill="url(#paint1_linear_1_60)"/>
<path d="M12.2139 27.0735C11.2077 26.7093 9.8386 26.5815 7.85815 26.0831C5.15174 25.393 2.35617 23.6486 1.42007 20.5176C1.2545 20.6709 1.10804 20.869 1.00615 21.0735C2.07598 24.0958 4.74418 26.2173 7.63527 26.9649C9.48199 27.4313 10.348 27.4824 11.7235 27.8658C11.9018 28.0575 13.1755 29.4377 13.1755 29.4377V28.115C13.1755 28.115 12.3349 27.2013 12.2075 27.0863L12.2139 27.0735Z" fill="url(#paint2_linear_1_60)"/>
<path d="M8.08103 25.2013C10.2844 25.7636 11.7235 25.8275 12.6915 26.2939C12.6915 26.2939 13.0417 26.6198 13.1754 26.7668C13.3092 26.6198 13.6594 26.2939 13.6594 26.2939C14.6274 25.8275 16.0665 25.7636 18.2699 25.2013C21.0527 24.492 24.052 22.0319 24.052 18.1661C24.052 15.3994 22.4728 14.3834 22.4728 10.8754C22.4728 8.51118 23.3643 6.6837 23.3643 6.6837C23.3643 6.6837 21.3074 6.26837 20.3458 3.65495C20.3458 3.65495 18.9831 4.93291 17.0982 4.93291C14.7356 4.93291 13.1754 3.27156 13.1754 3.27156C13.1754 3.27156 11.6089 4.93291 9.24637 4.93291C7.36144 4.93291 5.99868 3.65495 5.99868 3.65495C5.03711 6.26837 2.98024 6.6837 2.98024 6.6837C2.98024 6.6837 3.87176 8.50479 3.87176 10.8754C3.87176 14.3834 2.29249 15.3994 2.29249 18.1661C2.29249 22.0319 5.29183 24.492 8.07466 25.2013H8.08103ZM23.0459 18.1661C23.0459 21.4441 20.4414 23.5974 18.0215 24.2173C16.2767 24.6645 14.1434 24.8946 13.4938 25.2588C13.3474 25.3674 13.1691 25.5527 13.1691 25.5527C13.1691 25.5527 12.9908 25.361 12.8443 25.2588C12.2011 24.8882 10.0615 24.6581 8.31664 24.2173C8.25296 24.1981 8.18291 24.1853 8.11923 24.1597L21.8551 13.8083C22.3263 15.4505 23.0395 16.524 23.0395 18.1597L23.0459 18.1661ZM22.0716 7.23962C21.7914 8.07668 21.4666 9.3738 21.4666 10.8754C21.4666 11.5016 21.5112 12.0511 21.5876 12.5495L6.852 23.655C5.00527 22.7029 3.38779 20.8754 3.31137 18.3642L20.2503 5.60383C20.8426 6.42811 21.5176 6.93291 22.0779 7.23962H22.0716ZM4.89064 10.8754C4.89064 9.3738 4.56587 8.07668 4.28568 7.23962C4.93522 6.88179 5.75033 6.2492 6.39987 5.16294C7.10035 5.55271 8.08739 5.94888 9.25274 5.94888C11.0167 5.94888 12.3922 5.17572 13.1818 4.59425C13.9651 5.17572 15.3469 5.94888 17.1045 5.94888C17.3847 5.94888 17.6585 5.92332 17.9196 5.88498L3.48968 16.754C3.9036 15.1182 4.89064 13.7636 4.89064 10.8754Z" fill="url(#paint3_linear_1_60)"/>
<path d="M9.25275 4.02556C11.6217 4.02556 13.1818 2.00639 13.1818 2.00639V0.741215L11.9401 1.97444C11.3033 2.60703 10.2844 3.1246 9.25275 3.1246C8.48222 3.1246 7.76263 2.77955 7.12583 2.25559L5.20268 0.658148L5.60387 2.15975C5.60387 2.15975 7.41876 4.03195 9.25275 4.03195V4.02556Z" fill="url(#paint4_linear_1_60)"/>
<path d="M25.2429 18.1661C25.2429 22.3642 22.2563 25.1246 18.4991 26.0767C16.5187 26.5815 15.1495 26.7093 14.1498 27.0671C14.0224 27.1885 13.1818 28.0958 13.1818 28.0958V29.4185C13.1818 29.4185 14.4554 28.0383 14.6337 27.8466C16.0092 27.4569 16.8753 27.4121 18.722 26.9457C22.46 25.9808 25.8415 22.7093 25.8415 18.1597C25.8415 16.5176 25.4721 15.5208 25.0964 14.5623L24.4341 14.5815C24.8608 15.6166 25.2492 16.7348 25.2492 18.1534L25.2429 18.1661Z" fill="url(#paint5_linear_1_60)"/>
<path d="M17.1045 4.02556C18.9449 4.02556 20.7534 2.15335 20.7534 2.15335L21.1546 0.651756L19.2314 2.2492C18.601 2.77955 17.8751 3.11821 17.1045 3.11821C16.0729 3.11821 15.054 2.60064 14.4172 1.96805L13.1818 0.734823V2C13.1818 2 14.742 4.01917 17.1045 4.01917V4.02556Z" fill="url(#paint6_linear_1_60)"/>
<path d="M5.60386 2.15335L5.20268 0.651756L4.33662 3.02236C3.96728 4.04473 3.34321 4.69009 2.4899 4.9393L0.534912 5.52077L1.76394 6.09585C1.76394 6.09585 4.78875 5.83387 5.60386 2.14696V2.15335Z" fill="url(#paint7_linear_1_60)"/>
<path d="M3.48968 16.754L17.9196 5.88498C17.6585 5.92332 17.3911 5.94888 17.1045 5.94888C15.3406 5.94888 13.9651 5.17572 13.1818 4.59425C12.3922 5.17572 11.0167 5.94888 9.25274 5.94888C8.08739 5.94888 7.10035 5.55272 6.39987 5.16294C5.75033 6.2492 4.93522 6.88179 4.28568 7.23962C4.56587 8.07668 4.89064 9.3738 4.89064 10.8754C4.89064 13.7636 3.90997 15.1182 3.48968 16.754Z" fill="#231F20"/>
<path d="M8.13197 24.1597C8.20202 24.1789 8.2657 24.1981 8.32938 24.2173C10.0742 24.6645 12.2075 24.8946 12.857 25.2588C13.0035 25.3674 13.1818 25.5527 13.1818 25.5527C13.1818 25.5527 13.3601 25.361 13.5066 25.2588C14.1498 24.8882 16.2894 24.6581 18.0343 24.2173C20.4541 23.5974 23.0586 21.4441 23.0586 18.1661C23.0586 16.5304 22.3454 15.4569 21.8742 13.8147L8.13834 24.1661L8.13197 24.1597Z" fill="#231F20"/>
<path d="M1.71317 10.8818C1.71317 14 0.133899 14.7093 0.133899 18.1661C0.133899 23.1502 3.97382 26.4153 7.54628 27.3355C9.34843 27.7764 9.89608 27.8083 11.5263 28.2109C11.66 28.3514 13.1884 30.0064 13.1884 30.0064C13.1884 30.0064 14.7167 28.3578 14.8504 28.2109C16.4806 27.8083 17.0219 27.7764 18.8304 27.3355C22.4029 26.4153 26.2428 23.1502 26.2428 18.1661C26.2428 14.7093 24.6572 14 24.6572 10.8818C24.6572 9.75719 24.8928 8.64537 25.364 7.58466L26.3765 5.27796L23.9949 4.57508C23.2689 4.35783 22.734 3.79553 22.4029 2.89457L21.3522 0L19.0024 1.95527C18.3783 2.47284 17.7479 2.73482 17.1238 2.73482C16.2896 2.73482 15.3471 2.32588 14.7103 1.69968L13.1947 0.198083L11.6791 1.69968C11.0423 2.32588 10.0999 2.73482 9.26565 2.73482C8.64158 2.73482 8.01115 2.47284 7.38708 1.95527L5.02454 0L3.97382 2.89457C3.64905 3.79553 3.11414 4.35783 2.38818 4.57508L0.00653839 5.27796L1.01905 7.58466C1.48392 8.64537 1.71954 9.75719 1.71954 10.8818H1.71317ZM2.49007 4.94569C3.34338 4.69649 3.96108 4.04473 4.3368 3.02875L5.20285 0.658147L7.12599 2.25559C7.7628 2.78594 8.48238 3.1246 9.25291 3.1246C10.2845 3.1246 11.3034 2.60703 11.9402 1.97444L13.182 0.741214L14.4174 1.97444C15.0542 2.60703 16.0731 3.1246 17.1047 3.1246C17.8752 3.1246 18.5948 2.77955 19.2316 2.25559L21.1548 0.658147L22.0208 3.02875C22.3902 4.05112 23.0142 4.69649 23.8675 4.94569L25.8225 5.52716L24.9883 7.42492C24.568 8.377 24.2496 9.55272 24.2496 10.8818C24.2496 12.5623 24.6763 13.5399 25.0838 14.5687C25.4659 15.5272 25.8289 16.524 25.8289 18.1661C25.8289 22.722 22.4538 25.9872 18.7094 26.9521C16.8627 27.4185 16.003 27.4696 14.6212 27.853C14.4429 28.0447 13.1693 29.4249 13.1693 29.4249C13.1693 29.4249 11.8956 28.0447 11.7173 27.853C10.3355 27.4633 9.47579 27.4185 7.62907 26.9521C4.73798 26.2045 2.06978 24.0831 0.999951 21.0607C0.687917 20.1661 0.509613 19.2013 0.509613 18.1597C0.509613 14.7604 2.09525 14.115 2.09525 10.8754C2.09525 9.54633 1.77685 8.37061 1.35656 7.41853L0.522349 5.52077L2.47733 4.9393L2.49007 4.94569Z" fill="#231F20"/>
<path d="M6.85836 23.655L21.594 12.5495C21.5176 12.0511 21.473 11.5016 21.473 10.8754C21.473 9.3738 21.7978 8.07668 22.0779 7.23962C21.5176 6.93291 20.8426 6.42812 20.2503 5.60383L3.31137 18.3642C3.39416 20.8754 5.00527 22.7029 6.85199 23.655H6.85836ZM18.1743 8.29393V12.5431L20.4159 10.8562C20.4159 10.8562 20.3395 11.3994 20.4159 12.3131L16.9007 14.9649V10.3898C16.9007 9.74441 16.283 9.72524 16.283 9.72524L18.1743 8.30032V8.29393ZM13.2328 12.0192V14.1278L14.6337 13.0735V10.9649L15.8437 10.0511V15.7572L14.6337 16.6709V14.5815L13.2328 15.6358V17.7252L11.9592 18.6837V14.1022C11.9592 13.4569 11.3415 13.4377 11.3415 13.4377L13.2328 12.0128V12.0192ZM8.02371 15.9425L9.60298 18.377V14.754L10.8447 13.8211V19.5272L9.53294 20.5112L8.11923 18.3387V21.5783L6.87747 22.5112V17.9297C6.87747 17.2843 6.25977 17.2652 6.25977 17.2652L8.01734 15.9425H8.02371Z" fill="#231F20"/>
<path d="M2.9484 11.8211C2.68731 14.4026 1.4137 15.4377 1.4137 18.1661C1.4137 21.508 3.69983 25.0224 7.86452 26.0767C9.84497 26.5815 11.2141 26.7093 12.2202 27.0671C12.3476 27.1885 13.1882 28.0958 13.1882 28.0958C13.1882 28.0958 14.0224 27.1821 14.1561 27.0671C15.1623 26.7029 16.525 26.5751 18.5055 26.0767C22.6702 25.016 24.9563 21.508 24.9563 18.1661C24.9563 15.131 23.377 14.1917 23.377 10.8754C23.377 8.29393 24.6061 6.10863 24.6061 6.10863C24.6061 6.10863 21.5812 5.84665 20.7661 2.15974C20.7661 2.15974 18.9513 4.03195 17.1173 4.03195C14.7484 4.03195 13.1946 2.01278 13.1946 2.01278C13.1946 2.01278 11.6344 4.03195 9.26548 4.03195C7.43149 4.03195 5.6166 2.15974 5.6166 2.15974C4.79513 5.84665 1.77668 6.10863 1.77668 6.10863C1.77668 6.10863 3.00571 8.29393 3.00571 10.8754C3.00571 11.2141 2.98661 11.5272 2.95477 11.8211H2.9484ZM2.99297 6.68371C2.99297 6.68371 5.04985 6.26837 6.01142 3.65495C6.01142 3.65495 7.37418 4.93291 9.25911 4.93291C11.6217 4.93291 13.1882 3.27157 13.1882 3.27157C13.1882 3.27157 14.7547 4.93291 17.1109 4.93291C18.9958 4.93291 20.3586 3.65495 20.3586 3.65495C21.3202 6.26837 23.377 6.68371 23.377 6.68371C23.377 6.68371 22.4855 8.50479 22.4855 10.8754C22.4855 14.3834 24.0648 15.3994 24.0648 18.1661C24.0648 22.032 21.0654 24.492 18.2826 25.2013C16.0793 25.7636 14.6401 25.8275 13.6722 26.2939C13.6722 26.2939 13.3219 26.6198 13.1882 26.7668C13.0545 26.6198 12.7042 26.2939 12.7042 26.2939C11.7363 25.8275 10.2971 25.7636 8.09377 25.2013C5.31094 24.492 2.3116 22.032 2.3116 18.1661C2.3116 15.3994 3.89087 14.3834 3.89087 10.8754C3.89087 8.51118 2.99934 6.68371 2.99934 6.68371H2.99297Z" fill="#231F20"/>
</g>
<defs>
<linearGradient id="paint0_linear_1_60" x1="39.1094" y1="46.4189" x2="42.3349" y2="46.4189" gradientUnits="userSpaceOnUse">
<stop offset="0.11" stop-color="white"/>
<stop offset="0.24" stop-color="#DADDDE"/>
<stop offset="0.44" stop-color="#A6ACB0"/>
<stop offset="0.54" stop-color="#929A9E"/>
</linearGradient>
<linearGradient id="paint1_linear_1_60" x1="24.5997" y1="14.5942" x2="24.5997" y2="5.52716" gradientUnits="userSpaceOnUse">
<stop stop-color="white"/>
<stop offset="0.35" stop-color="white"/>
<stop offset="0.56" stop-color="#929A9E"/>
<stop offset="1" stop-color="#929A9E"/>
</linearGradient>
<linearGradient id="paint2_linear_1_60" x1="1.01252" y1="24.9712" x2="13.1818" y2="24.9712" gradientUnits="userSpaceOnUse">
<stop offset="0.15" stop-color="white"/>
<stop offset="0.21" stop-color="#F9FAFA"/>
<stop offset="0.28" stop-color="#EAECEC"/>
<stop offset="0.37" stop-color="#D1D4D6"/>
<stop offset="0.45" stop-color="#AEB4B7"/>
<stop offset="0.51" stop-color="#929A9E"/>
</linearGradient>
<linearGradient id="paint3_linear_1_60" x1="20.4032" y1="24.3514" x2="5.90712" y2="3.72696" gradientUnits="userSpaceOnUse">
<stop stop-color="#929A9E"/>
<stop offset="0.01" stop-color="#969EA2"/>
<stop offset="0.12" stop-color="#BFC3C5"/>
<stop offset="0.2" stop-color="#D8DADB"/>
<stop offset="0.25" stop-color="#E2E3E4"/>
<stop offset="0.75" stop-color="#E2E3E4"/>
<stop offset="0.8" stop-color="#DADBDD"/>
<stop offset="0.88" stop-color="#C4C7CA"/>
<stop offset="0.97" stop-color="#A1A7AB"/>
<stop offset="1" stop-color="#929A9E"/>
</linearGradient>
<linearGradient id="paint4_linear_1_60" x1="5.20268" y1="2.34505" x2="13.1818" y2="2.34505" gradientUnits="userSpaceOnUse">
<stop offset="0.25" stop-color="white"/>
<stop offset="0.34" stop-color="#F9FAFA"/>
<stop offset="0.45" stop-color="#EAECEC"/>
<stop offset="0.57" stop-color="#D1D4D6"/>
<stop offset="0.7" stop-color="#AEB4B7"/>
<stop offset="0.79" stop-color="#929A9E"/>
</linearGradient>
<linearGradient id="paint5_linear_1_60" x1="13.1818" y1="22" x2="25.8415" y2="22" gradientUnits="userSpaceOnUse">
<stop offset="0.2" stop-color="white"/>
<stop offset="0.33" stop-color="#FAFAFA"/>
<stop offset="0.47" stop-color="#EDEEEE"/>
<stop offset="0.62" stop-color="#D6D9DB"/>
<stop offset="0.78" stop-color="#B7BDBF"/>
<stop offset="0.93" stop-color="#929A9E"/>
</linearGradient>
<linearGradient id="paint6_linear_1_60" x1="13.1818" y1="2.34505" x2="21.161" y2="2.34505" gradientUnits="userSpaceOnUse">
<stop offset="0.25" stop-color="white"/>
<stop offset="0.34" stop-color="#F9FAFA"/>
<stop offset="0.45" stop-color="#EAECEC"/>
<stop offset="0.57" stop-color="#D1D4D6"/>
<stop offset="0.7" stop-color="#AEB4B7"/>
<stop offset="0.79" stop-color="#929A9E"/>
</linearGradient>
<linearGradient id="paint7_linear_1_60" x1="0.534912" y1="3.38019" x2="5.60386" y2="3.38019" gradientUnits="userSpaceOnUse">
<stop offset="0.39" stop-color="white"/>
<stop offset="0.47" stop-color="#F9FAFA"/>
<stop offset="0.56" stop-color="#EAECEC"/>
<stop offset="0.67" stop-color="#D1D4D6"/>
<stop offset="0.79" stop-color="#AEB4B7"/>
<stop offset="0.87" stop-color="#929A9E"/>
</linearGradient>
<clipPath id="clip0_1_60">
<rect width="26.3636" height="30" fill="white"/>
</clipPath>
</defs>
</svg>
