<svg width="30" height="30" viewBox="0 0 30 30" fill="none" xmlns="http://www.w3.org/2000/svg">
<g clip-path="url(#clip0_1_108)">
<path d="M10.7127 11.8036L16.9309 9.61091L20.4327 15.1964L16.44 20.3455L10.6145 18.3055L10.7127 11.8036Z" stroke="black" stroke-width="1.5" stroke-miterlimit="10"/>
<path d="M14.9564 0.818182L18.1636 5.94545L23.88 3.93818" stroke="black" stroke-width="1.5" stroke-miterlimit="10"/>
<path d="M7.23273 3.14182L7.37455 9.18546L1.50546 10.6691" stroke="black" stroke-width="1.5" stroke-miterlimit="10"/>
<path d="M14.3236 29.16L17.76 24.1855L23.3673 26.4436" stroke="black" stroke-width="1.5" stroke-miterlimit="10"/>
<path d="M28.2545 20.0073L24.5891 15.2182L28.4618 10.5818" stroke="black" stroke-width="1.5" stroke-miterlimit="10"/>
<path d="M1.33091 18.7309L7.12363 20.4545L6.68727 26.4982C1.73454 22.92 -0.501822 16.3855 1.61454 10.32C4.2 2.92364 12.2945 -0.970908 19.68 1.61455C21.24 2.16 22.6473 2.95636 23.8691 3.93818C24.6218 4.53818 25.2982 5.21455 25.9091 5.94545C28.9745 9.64364 30.0764 14.8145 28.3745 19.68C25.7891 27.0655 17.6945 30.96 10.3091 28.3745C10.0145 28.2764 9.73091 28.1564 9.44727 28.0364" stroke="black" stroke-width="1.5" stroke-miterlimit="10"/>
</g>
<defs>
<clipPath id="clip0_1_108">
<rect width="30" height="30" fill="white"/>
</clipPath>
</defs>
</svg>
