<svg width="30" height="28" viewBox="0 0 30 28" fill="none" xmlns="http://www.w3.org/2000/svg">
<g clip-path="url(#clip0_1_127)">
<path d="M13.6505 21.0633L12.699 23.2572C14.4755 23.0693 16.1275 22.9854 17.6331 22.9727L16.633 20.6676C15.5876 20.7806 14.5947 20.9138 13.6505 21.0633Z" fill="#D71F2B"/>
<path d="M22.5257 20.2937C22.161 21.2384 21.7927 22.1958 21.4479 23.093C25.111 23.3611 27.2504 23.9739 27.2504 23.9739L28.9529 20.3885C26.6691 20.27 24.5297 20.2463 22.5257 20.2937Z" fill="#D71F2B"/>
<path d="M0.992964 25.3507C0.222067 25.9033 0.0162533 26.1513 4.85405e-06 26.1732C-0.0306866 26.2151 1.63568 25.544 4.2607 24.8437C6.69616 24.1945 7.9509 23.9793 9.25619 23.7368C9.05579 23.2189 8.84637 22.6736 8.63153 22.1156C4.4286 23.2444 2.11049 24.5465 0.992964 25.3489V25.3507Z" fill="#D71F2B"/>
<path d="M15.2284 4.66128L19.6786 16.2105L27.8317 0L19.7256 10.7651L15.2284 0.437679L10.7294 10.7651L2.62321 0L10.7781 16.2105L15.2284 4.66128Z" fill="#010101"/>
<path d="M22.5257 20.2937C23.3905 18.0488 24.23 15.875 24.6759 14.7315C26.2159 10.7705 30 0 30 0L19.5432 21.5703C18.3643 18.6214 15.2284 10.7888 15.2284 10.7888C15.0099 11.3322 12.0906 18.6287 10.9153 21.5703L0.456757 0C0.456757 0 4.24083 10.7705 5.78082 14.7315C6.34591 16.185 7.5501 19.3053 8.63152 22.1174C8.84636 22.6754 9.05578 23.2207 9.25618 23.7386C10.1101 25.958 10.7763 27.6905 10.7763 27.6905L12.699 23.259L13.6505 21.0651L15.2284 17.4287L16.633 20.6694L17.6331 22.9745L19.6786 27.6941C19.6786 27.6941 20.4748 25.6188 21.4461 23.0949C21.7927 22.1976 22.161 21.2402 22.5239 20.2955L22.5257 20.2937Z" fill="#010101"/>
<path d="M22.1719 24.4079C21.939 24.4079 21.7729 24.231 21.7729 23.9994C21.7729 23.7532 21.957 23.5909 22.1719 23.5909C22.3867 23.5909 22.5673 23.7532 22.5673 23.9994C22.5673 24.2456 22.3831 24.4079 22.1719 24.4079ZM22.1719 23.6602C21.9968 23.6602 21.8595 23.7988 21.8595 23.9976C21.8595 24.1836 21.9787 24.3349 22.1719 24.3349C22.3452 24.3349 22.4806 24.1963 22.4806 23.9976C22.4806 23.7988 22.3452 23.6602 22.1719 23.6602ZM22.0924 24.2328H22.0184V23.7805H22.1881C22.2964 23.7805 22.3524 23.8188 22.3524 23.91C22.3524 23.9921 22.3019 24.0249 22.2351 24.034L22.3614 24.2328H22.2784L22.1629 24.0395H22.0942V24.2328H22.0924ZM22.1755 23.9757C22.2315 23.9757 22.2802 23.9702 22.2802 23.9046C22.2802 23.8498 22.2278 23.8444 22.1827 23.8444H22.0942V23.9775H22.1773L22.1755 23.9757Z" fill="#231F20"/>
</g>
<defs>
<clipPath id="clip0_1_127">
<rect width="30" height="27.6923" fill="white"/>
</clipPath>
</defs>
</svg>
